Coordinates
version=1
nRows=14
nColumns=36
inDegrees=yes

Units are S.I. units (second, meters, Newtons, ...)
If the header above contains a line with 'inDegrees', this indicates whether rotational values are in degrees (yes) or radians (no).

endheader
time	pelvis_tilt	pelvis_list	pelvis_rotation	pelvis_tx	pelvis_ty	pelvis_tz	hip_flexion_r	hip_adduction_r	hip_rotation_r	knee_angle_r	knee_angle_r_beta	ankle_angle_r	subtalar_angle_r	mtp_angle_r	hip_flexion_l	hip_adduction_l	hip_rotation_l	knee_angle_l	knee_angle_l_beta	ankle_angle_l	subtalar_angle_l	mtp_angle_l	lumbar_extension	lumbar_bending	lumbar_rotation	arm_flex_r	arm_add_r	arm_rot_r	elbow_flex_r	pro_sup_r	arm_flex_l	arm_add_l	arm_rot_l	elbow_flex_l	pro_sup_l
      0.00000000	     10.47024873	      8.62471207	      3.43849478	      0.03655692	      0.92733481	      0.12252710	    -18.16792995	     -8.11750662	     -2.21003593	      0.25382066	      0.00443001	      2.81541479	    -26.60352834	     -7.32551301	    -19.19957565	     -1.03977773	     33.53679679	      0.36194469	      0.00631713	     -0.62347387	    -34.68090662	     -7.32551301	    -32.15789965	    -11.04547345	      3.70674947	     17.10235120	     -6.42291935	     28.42978232	    122.15383133	    106.40393686	     36.66313466	      0.14141963	     44.95977133	     86.33327426	     92.67103564
      0.01666670	      5.62598352	      5.44481594	      5.65092053	      0.04424955	      0.90766508	      0.11790722	    -14.35621496	     -5.87654862	     -0.23523663	      0.54839020	      0.00957121	      2.72023284	    -24.10608421	     -7.36673055	    -14.44243460	     -4.29468201	     36.15740880	      0.72508531	      0.01265513	      2.24816412	    -34.60762677	     -7.36673055	    -24.47958387	     -6.33771019	      4.13158656	     15.85977849	     -7.67649790	     29.11208952	    120.42574447	    100.86312415	     34.14132901	     -0.54526446	     43.77461225	     84.25160797	     88.21727484
      0.03333330	      3.33636743	      3.40477450	      6.75368582	      0.04627760	      0.89942153	      0.11704987	    -12.28968744	     -4.54193833	      0.63620093	      0.52239893	      0.00911758	      6.80579921	    -21.18219995	     -7.41665108	    -12.36388121	     -6.77866872	     36.33064963	      1.00036811	      0.01745972	      3.83559228	    -34.51554907	     -7.41665108	    -20.54459025	     -3.86844883	      3.72161713	     13.59346012	     -8.19780744	     29.42685950	    116.90517213	     95.56792504	     33.06927673	     -1.21292729	     43.39751674	     79.62821881	     81.65022248
      0.05000000	      1.87539616	      1.75009895	      7.44106593	      0.04212802	      0.89642258	      0.11650024	    -10.47968747	     -2.95047369	      1.87525992	      0.53575974	      0.00935077	      8.85718352	    -19.95212105	     -7.41983782	    -10.98506443	     -8.64343352	     36.23627919	      0.89333619	      0.01559166	      4.23193649	    -34.38323045	     -7.41983782	    -18.22943406	     -2.10233922	      3.15933028	     13.05651840	     -8.92907424	     30.09912388	    112.28383042	     95.19373602	     32.63487134	     -1.65326737	     43.71445031	     74.46856409	     80.54777532
      0.06666670	      0.82420231	      0.05547612	      7.99096495	      0.04057093	      0.88601850	      0.11468229	     -8.89959787	     -1.06802753	      2.77215956	      0.60330072	      0.01052958	     11.12510707	    -18.93822460	     -7.46186200	    -10.11047372	    -10.42017647	     36.12950038	      1.01472693	      0.01771033	      4.77550181	    -34.18496036	     -7.46186200	    -16.18642841	     -0.30091248	      2.87501636	     13.16316554	     -9.50066842	     29.98290188	    107.49351880	     89.78539787	     31.70596672	     -1.21753721	     45.03583042	     68.15742013	     66.06999078
      0.08333330	      0.00948454	     -0.72751707	      7.90958812	      0.03803151	      0.88661869	      0.11389884	     -7.64354360	     -0.35684923	      3.41203533	      0.69458427	      0.01212278	     11.85624472	    -18.87730263	     -7.49266569	     -8.63781308	    -10.93133605	     35.61677684	      0.77209867	      0.01347566	      3.93394472	    -34.03032667	     -7.49266569	    -15.13980954	      0.34694240	      2.87640773	     13.52948496	     -9.82359934	     29.30246578	    102.56175525	     85.51729759	     29.98017333	     -0.71604684	     44.46019386	     62.62939556	     61.82699521
      0.10000000	     -0.58813444	     -1.00153319	      7.65985475	      0.04117476	      0.89001918	      0.11495741	     -6.81931826	     -0.05988878	      4.05584198	      0.75669308	      0.01320679	     11.80691962	    -19.15755096	     -7.49371217	     -7.60931987	    -11.11940790	     34.96689904	      0.65142333	      0.01136948	      3.23182896	    -33.78404007	     -7.49371217	    -14.27404147	      0.19103229	      2.78671649	     13.73911695	     -9.44006968	     28.00215719	     96.06802684	     83.09280629	     28.28974619	     -0.15033995	     43.04142962	     56.03593344	     60.37610006
      0.11666670	     -0.94985191	     -1.16539036	      7.38764696	      0.04006223	      0.89681599	      0.11716900	     -6.27268884	      0.27976508	      4.39355435	      0.90245139	      0.01575075	     11.52451075	    -19.28955925	     -7.49390942	     -7.49101105	    -11.36115689	     34.27374309	      0.69517339	      0.01213306	      3.28891221	    -33.33891616	     -7.49390942	    -13.75145965	      0.00444718	      2.60377430	     13.92452601	     -8.39578793	     26.54795227	     88.94489205	     82.37470121	     26.91739031	      0.44439405	     40.91089063	     49.03788530	     59.50456640
      0.13333330	     -0.96462099	     -1.17292677	      6.97194902	      0.03596471	      0.89849778	      0.11337019	     -5.95121719	      0.14778507	      4.86455823	      0.97112969	      0.01694941	     11.08836568	    -19.49355163	     -7.49404760	     -7.38935631	    -11.25572349	     33.71001356	      0.64223212	      0.01120907	      3.01411634	    -33.05329955	     -7.49404760	    -14.09068074	     -0.01313726	      2.19181013	     14.35543169	     -7.56916790	     25.35533025	     81.78672344	     81.66675060	     26.19424725	      1.04494760	     39.50540900	     42.33848735	     58.84506979
      0.15000000	     -1.29680035	     -0.89279742	      6.78947525	      0.04020105	      0.90059728	      0.11024872	     -5.61810156	     -0.47760065	      5.27939549	      0.82762244	      0.01444474	     10.22156209	    -19.69573673	     -7.49473310	     -6.68671993	    -10.73707303	     33.33578502	      0.62525715	      0.01091280	      2.69544931	    -32.51612607	     -7.49473310	    -13.80610078	     -0.28908309	      1.08771093	     14.66217061	     -7.11623506	     25.53487054	     74.53106438	     78.95964436	     25.44087112	      1.46503471	     39.02403869	     34.39227414	     57.97844659
      0.16666670	     -1.19398987	     -0.54828562	      6.23479466	      0.04162642	      0.89985912	      0.11248246	     -5.68823251	     -1.07100149	      6.09901685	      0.77561793	      0.01353709	      9.18846633	    -20.69047619	     -7.49519852	     -6.58489316	    -10.17803397	     32.70301379	      0.53639219	      0.00936181	      2.46444718	    -32.13502424	     -7.49519852	    -14.20774543	     -0.65284172	      0.69651999	     14.42334017	     -6.47255647	     24.53071602	     67.64723212	     76.84374552	     24.73451350	      1.56146747	     38.40616208	     28.13608042	     57.84117909
      0.18333330	     -0.57879519	     -0.40962265	      6.10693903	      0.04225974	      0.89989819	      0.11605593	     -6.38579476	     -1.14865515	      6.21787912	      0.74361595	      0.01297855	      8.97444951	    -20.59745992	     -7.49530098	     -7.29805109	    -10.18125359	     32.36781834	      0.49677897	      0.00867043	      2.60721595	    -31.68826779	     -7.49530098	    -15.25973323	     -0.74513136	      0.33666713	     14.36698125	     -5.74366273	     22.66710562	     61.18382989	     76.42796640	     24.11922166	      0.88617495	     39.02997215	     23.72823237	     57.93483817
      0.20000000	     -0.73033491	     -0.30517159	      5.49709619	      0.04065252	      0.89334972	      0.11983307	     -6.13094183	     -1.31308877	      6.65893059	      0.80498948	      0.01404972	      8.80903932	    -21.51609631	     -7.49593573	     -6.84844475	     -9.99902989	     31.86185209	      0.42089961	      0.00734608	      2.43120719	    -31.73661995	     -7.49593573	    -15.28857289	     -1.00011256	      0.54430412	     14.30428938	     -5.42449468	     21.59436894	     54.88166745	     75.27462501	     23.59307151	      0.15229302	     41.01650731	     18.84025466	     58.63173271
      0.21666670	     -0.09490380	      0.05647813	      5.16172669	      0.05000351	      0.90715498	      0.12018892	     -7.12921185	     -1.63428747	      7.06677144	      0.71131557	      0.01241480	      8.07623991	    -21.63063762	     -7.49666068	     -7.21272325	     -9.73865023	     31.37778543	      0.34289295	      0.00598461	      1.88755900	    -31.54237548	     -7.49666068	    -16.19963073	     -1.61947505	      1.39761007	     13.41426197	     -5.26901742	     19.41261508	     48.75946522	     75.67845744	     23.13308441	     -0.80510029	     47.45811655	     14.39459151	     59.98443932
